<svg width="151" height="49" viewBox="0 0 151 49" fill="none" xmlns="http://www.w3.org/2000/svg">
<g clip-path="url(#clip0_406480_4500)">
<path d="M5.78895 28.6674L11.1619 16.2922H12.9645V19.7933L9.1514 28.6674H11.9939V27.0729C11.9939 26.6846 12.6409 26.6569 12.9645 26.6916V31.5792C12.0771 31.5792 11.9477 31.2788 11.9939 31.1286V29.742H8.63143L0.311979 48.3221H0L2.11453 41.9092C2.11453 41.9092 0.242651 41.1813 0.866609 39.6214C1.49057 38.0615 5.23432 29.742 5.23432 29.742H0.866609V28.6674H5.78895Z" fill="#FF9900"/>
<path d="M19.7934 28.6674L14.4204 16.2922H12.6178V19.7933L16.4309 28.6674H13.5884V27.0729C13.5884 26.6846 12.9414 26.6569 12.6178 26.6916V31.5792C13.5052 31.5792 13.6347 31.2788 13.5884 31.1286V29.742H16.9509L25.2703 48.3221H25.5823L23.4678 41.9092C23.4678 41.9092 25.3397 41.1813 24.7157 39.6214C24.0917 38.0615 20.348 29.742 20.348 29.742H24.7157V28.6674H19.7934Z" fill="#FF9900"/>
<path fill-rule="evenodd" clip-rule="evenodd" d="M12.8256 14.4897C14.8549 14.4897 16.5 12.8446 16.5 10.8153C16.5 8.78596 14.8549 7.14086 12.8256 7.14086C10.7963 7.14086 9.15116 8.78596 9.15116 10.8153C9.15116 12.8446 10.7963 14.4897 12.8256 14.4897ZM12.8256 16.5002C15.9653 16.5002 18.5105 13.955 18.5105 10.8153C18.5105 7.67557 15.9653 5.13033 12.8256 5.13033C9.68587 5.13033 7.14062 7.67557 7.14062 10.8153C7.14062 13.955 9.68587 16.5002 12.8256 16.5002Z" fill="black"/>
<path d="M11.7857 0H13.8655V5.47697H11.7857V0Z" fill="black"/>
<path d="M46.6956 23.4052C45.9569 23.8293 45.0608 24.1645 44.0073 24.4107C42.9539 24.657 41.8594 24.7801 40.7239 24.7801C39.1917 24.7801 37.8852 24.5954 36.8044 24.226C35.7373 23.8566 34.9301 23.3436 34.3829 22.6869C33.8493 22.0302 33.5825 21.2709 33.5825 20.4091C33.5825 19.6566 33.7877 18.9931 34.1982 18.4185C34.6086 17.8439 35.1763 17.3993 35.9014 17.0846C35.3405 16.7973 34.9096 16.4006 34.6086 15.8944C34.3213 15.3745 34.1776 14.8067 34.1776 14.1911C34.1776 13.3976 34.4239 12.6725 34.9164 12.0158C35.4226 11.3592 36.1887 10.8324 37.2148 10.4357C38.2409 10.0389 39.5063 9.84058 41.0112 9.84058C41.9552 9.84058 42.8855 9.9295 43.8021 10.1074C44.7188 10.2852 45.5259 10.5246 46.2236 10.8256L45.1155 13.8628C43.8432 13.3018 42.5298 13.0214 41.1754 13.0214C40.2041 13.0214 39.479 13.1513 39.0001 13.4113C38.5213 13.6575 38.2819 14.0064 38.2819 14.4579C38.2819 15.2787 38.877 15.6892 40.0673 15.6892H44.1305V18.7879H39.8005C39.1028 18.7879 38.576 18.9042 38.2203 19.1367C37.8646 19.3556 37.6868 19.684 37.6868 20.1218C37.6868 20.5869 37.9467 20.9494 38.4666 21.2094C38.9865 21.4693 39.7936 21.5993 40.8881 21.5993C41.6679 21.5993 42.4682 21.4967 43.2891 21.2915C44.1236 21.0726 44.8487 20.7784 45.4644 20.4091L46.6956 23.4052Z" fill="black"/>
<path d="M57.1546 18.6647C58.4269 19.0888 59.0631 19.9644 59.0631 21.2915C59.0631 22.2902 58.6732 23.0768 57.8934 23.6514C57.1136 24.2123 55.9644 24.4928 54.4458 24.4928H48.1868V13.3702H54.1585C55.6087 13.3702 56.7305 13.6233 57.524 14.1295C58.3312 14.6357 58.7348 15.3471 58.7348 16.2637C58.7348 16.7973 58.5979 17.2693 58.3243 17.6797C58.0507 18.0901 57.6608 18.4185 57.1546 18.6647ZM51.6754 17.8439H53.8096C54.7126 17.8439 55.164 17.5087 55.164 16.8383C55.164 16.1953 54.7126 15.8738 53.8096 15.8738H51.6754V17.8439ZM54.0969 21.9687C55.0409 21.9687 55.5129 21.6267 55.5129 20.9426C55.5129 20.2586 55.0546 19.9165 54.138 19.9165H51.6754V21.9687H54.0969Z" fill="black"/>
<path d="M66.2451 20.5322H64.9317V24.4928H61.0327V13.3702H64.9317V17.4745H66.3272L69.0565 13.3702H73.1813L69.4464 18.7058L73.4275 24.4928H68.8308L66.2451 20.5322Z" fill="black"/>
<path d="M86.048 13.3702V24.4928H82.1489V16.469H79.3375L79.2554 18.1722C79.2007 19.6224 79.0571 20.8195 78.8245 21.7635C78.5919 22.7074 78.2088 23.4462 77.6753 23.9798C77.1417 24.4996 76.4098 24.7596 75.4795 24.7596C75.0007 24.7596 74.3714 24.6706 73.5915 24.4928L73.7557 21.312C74.002 21.3394 74.1661 21.353 74.2482 21.353C74.6723 21.353 74.9938 21.2162 75.2127 20.9426C75.4316 20.669 75.5821 20.3064 75.6642 19.855C75.7463 19.3898 75.801 18.7742 75.8284 18.0081L75.9925 13.3702H86.048Z" fill="black"/>
<path d="M100.119 13.3702V24.4928H96.4048V23.3231C95.9944 23.7609 95.5019 24.096 94.9273 24.3286C94.3664 24.5612 93.7644 24.6775 93.1214 24.6775C91.6713 24.6775 90.5152 24.2534 89.6533 23.4052C88.8051 22.557 88.381 21.2846 88.381 19.5882V13.3702H92.28V18.952C92.28 20.5527 92.9025 21.353 94.1475 21.353C94.7631 21.353 95.2625 21.141 95.6455 20.7169C96.0286 20.2791 96.2201 19.6156 96.2201 18.7263V13.3702H100.119Z" fill="black"/>
<path d="M114.577 13.3702V22.4612C114.577 24.527 114.017 26.0729 112.895 27.099C111.773 28.1387 110.158 28.6586 108.052 28.6586C106.957 28.6586 105.931 28.5355 104.973 28.2892C104.016 28.043 103.202 27.6804 102.531 27.2016L103.947 24.4723C104.399 24.8417 104.967 25.129 105.651 25.3342C106.348 25.5531 107.032 25.6625 107.703 25.6625C108.729 25.6625 109.481 25.4368 109.96 24.9853C110.439 24.5338 110.678 23.8635 110.678 22.9742V22.6048C109.926 23.4804 108.825 23.9182 107.374 23.9182C106.389 23.9182 105.48 23.6993 104.645 23.2615C103.811 22.81 103.147 22.1807 102.655 21.3736C102.162 20.5527 101.916 19.6087 101.916 18.5416C101.916 17.4882 102.162 16.5579 102.655 15.7507C103.147 14.9299 103.811 14.3005 104.645 13.8628C105.48 13.4113 106.389 13.1856 107.374 13.1856C108.961 13.1856 110.124 13.6986 110.863 14.7246V13.3702H114.577ZM108.298 20.8195C108.996 20.8195 109.57 20.6074 110.022 20.1833C110.487 19.7592 110.719 19.212 110.719 18.5416C110.719 17.8713 110.494 17.3309 110.042 16.9204C109.591 16.4963 109.009 16.2843 108.298 16.2843C107.586 16.2843 106.998 16.4963 106.533 16.9204C106.082 17.3309 105.856 17.8713 105.856 18.5416C105.856 19.212 106.088 19.7592 106.554 20.1833C107.019 20.6074 107.6 20.8195 108.298 20.8195Z" fill="black"/>
<path d="M39.9086 29.9282V36.6253H38.0334V31.4302H35.4885V36.6253H33.6229V29.9282H39.9086Z" fill="black"/>
<path d="M44.0096 31.3537C44.5773 31.3537 45.0716 31.4621 45.4925 31.679C45.9135 31.8959 46.2356 32.2084 46.4588 32.6166C46.6885 33.0184 46.8033 33.4904 46.8033 34.0326C46.8033 34.5683 46.698 35.0403 46.4875 35.4485C46.2771 35.8504 45.9805 36.1629 45.5978 36.3861C45.2151 36.603 44.7718 36.7114 44.2679 36.7114C43.6747 36.7114 43.2091 36.5297 42.8711 36.1661V38.4814H41.0533V34.0517C41.0533 33.5159 41.1745 33.0439 41.4168 32.6357C41.6592 32.2275 42.0036 31.9118 42.4501 31.6886C42.8966 31.4653 43.4164 31.3537 44.0096 31.3537ZM43.9235 35.2668C44.2488 35.2668 44.5103 35.1551 44.708 34.9319C44.9121 34.7023 45.0142 34.4025 45.0142 34.0326C45.0142 33.6626 44.9121 33.366 44.708 33.1428C44.5103 32.9132 44.2488 32.7984 43.9235 32.7984C43.5982 32.7984 43.3367 32.9132 43.139 33.1428C42.9412 33.366 42.8424 33.6626 42.8424 34.0326C42.8424 34.4089 42.938 34.7087 43.1294 34.9319C43.3271 35.1551 43.5918 35.2668 43.9235 35.2668Z" fill="black"/>
<path d="M50.2363 36.7114C49.6814 36.7114 49.1807 36.5966 48.7342 36.367C48.2878 36.1374 47.9369 35.8185 47.6818 35.4103C47.4331 35.0021 47.3087 34.5396 47.3087 34.023C47.3087 33.5127 47.4331 33.0535 47.6818 32.6453C47.9369 32.2371 48.2846 31.9214 48.7247 31.6981C49.1711 31.4685 49.675 31.3537 50.2363 31.3537C50.7976 31.3537 51.3015 31.4685 51.7479 31.6981C52.1944 31.9214 52.542 32.2371 52.7908 32.6453C53.0395 33.0471 53.1639 33.5064 53.1639 34.023C53.1639 34.5396 53.0395 35.0021 52.7908 35.4103C52.542 35.8185 52.1944 36.1374 51.7479 36.367C51.3015 36.5966 50.7976 36.7114 50.2363 36.7114ZM50.2363 35.2668C50.5552 35.2668 50.8167 35.1583 51.0208 34.9415C51.2249 34.7182 51.327 34.4121 51.327 34.023C51.327 33.6403 51.2249 33.3405 51.0208 33.1237C50.8167 32.9068 50.5552 32.7984 50.2363 32.7984C49.9174 32.7984 49.6559 32.9068 49.4518 33.1237C49.2477 33.3405 49.1456 33.6403 49.1456 34.023C49.1456 34.4121 49.2477 34.7182 49.4518 34.9415C49.6559 35.1583 49.9174 35.2668 50.2363 35.2668Z" fill="black"/>
<path d="M56.7623 35.3242C57.0111 35.3242 57.2247 35.2891 57.4033 35.2189C57.5883 35.1488 57.7733 35.034 57.9582 34.8745L58.9054 35.8695C58.4143 36.4308 57.6808 36.7114 56.7049 36.7114C56.099 36.7114 55.5664 36.5966 55.1071 36.367C54.6479 36.1374 54.2907 35.8185 54.0356 35.4103C53.7868 35.0021 53.6625 34.5396 53.6625 34.023C53.6625 33.5127 53.7868 33.0567 54.0356 32.6549C54.2843 32.2467 54.6256 31.9278 55.0593 31.6981C55.4994 31.4685 55.9905 31.3537 56.5327 31.3537C57.0366 31.3537 57.4958 31.459 57.9104 31.6694C58.3313 31.8735 58.6662 32.1765 58.915 32.5783C59.1637 32.9738 59.2881 33.4458 59.2881 33.9943L55.5855 34.7023C55.7832 35.1169 56.1755 35.3242 56.7623 35.3242ZM56.5422 32.6453C56.2297 32.6453 55.9746 32.7442 55.7769 32.9419C55.5791 33.1332 55.4675 33.4107 55.442 33.7743L57.5468 33.3629C57.483 33.146 57.3619 32.9738 57.1833 32.8462C57.0047 32.7123 56.791 32.6453 56.5422 32.6453Z" fill="black"/>
<path d="M62.585 34.7788H61.9727V36.6253H60.1549V31.4398H61.9727V33.3533H62.6233L63.8957 31.4398H65.8188L64.0775 33.9273L65.9336 36.6253H63.7905L62.585 34.7788Z" fill="black"/>
<path d="M73.2908 31.3537C73.9286 31.3537 74.4357 31.5451 74.812 31.9277C75.1947 32.3104 75.3861 32.8877 75.3861 33.6594V36.6253H73.5683V33.956C73.5683 33.5925 73.4981 33.3246 73.3578 33.1524C73.2239 32.9802 73.0325 32.8941 72.7838 32.8941C72.5095 32.8941 72.2894 32.9897 72.1236 33.1811C71.9578 33.3724 71.8749 33.6626 71.8749 34.0517V36.6253H70.0571V33.956C70.0571 33.248 69.7955 32.8941 69.2725 32.8941C68.9919 32.8941 68.7687 32.9897 68.6028 33.1811C68.437 33.3724 68.3541 33.6626 68.3541 34.0517V36.6253H66.5363V31.4398H68.268V31.9852C68.4593 31.7747 68.6857 31.6184 68.9472 31.5164C69.2151 31.4079 69.5053 31.3537 69.8179 31.3537C70.1814 31.3537 70.5067 31.4207 70.7937 31.5546C71.0808 31.6886 71.3136 31.8927 71.4922 32.1669C71.6963 31.9054 71.9546 31.7045 72.2671 31.5642C72.5797 31.4239 72.9209 31.3537 73.2908 31.3537Z" fill="black"/>
<path d="M76.4867 31.4398H78.2949V33.3629H80.1606V31.4398H81.9784V36.6253H80.1606V34.8075H78.2949V36.6253H76.4867V31.4398Z" fill="black"/>
<path d="M85.6728 36.7784C83.9571 36.7784 83.0992 36.0417 83.0992 34.5683V31.4398H84.9074V33.0854C85.0413 32.9961 85.2199 32.9228 85.4432 32.8654C85.6728 32.8079 85.9343 32.7792 86.2277 32.7792C86.8655 32.7792 87.3662 32.9419 87.7298 33.2672C88.0933 33.5861 88.2751 34.0613 88.2751 34.6927C88.2751 35.3752 88.0391 35.895 87.5671 36.2522C87.1015 36.603 86.4701 36.7784 85.6728 36.7784ZM88.7057 31.4398H90.5235V36.6253H88.7057V31.4398ZM85.6728 35.5346C85.9216 35.5346 86.1097 35.4613 86.2373 35.3146C86.3648 35.1679 86.4286 34.9734 86.4286 34.731C86.4286 34.495 86.3648 34.31 86.2373 34.1761C86.1097 34.0421 85.9247 33.9752 85.6824 33.9752C85.5102 33.9752 85.3571 34.0071 85.2231 34.0708C85.0892 34.1346 84.9839 34.2207 84.9074 34.3292V34.731C84.9074 34.9797 84.9712 35.1775 85.0988 35.3242C85.2263 35.4645 85.4177 35.5346 85.6728 35.5346Z" fill="black"/>
<path d="M94.4899 35.3242C94.7386 35.3242 94.9523 35.2891 95.1309 35.2189C95.3159 35.1488 95.5008 35.034 95.6858 34.8745L96.633 35.8695C96.1418 36.4308 95.4083 36.7114 94.4325 36.7114C93.8265 36.7114 93.294 36.5966 92.8347 36.367C92.3755 36.1374 92.0183 35.8185 91.7632 35.4103C91.5144 35.0021 91.39 34.5396 91.39 34.023C91.39 33.5127 91.5144 33.0567 91.7632 32.6549C92.0119 32.2467 92.3532 31.9278 92.7869 31.6981C93.227 31.4685 93.7181 31.3537 94.2603 31.3537C94.7641 31.3537 95.2234 31.459 95.638 31.6694C96.0589 31.8735 96.3938 32.1765 96.6425 32.5783C96.8913 32.9738 97.0157 33.4458 97.0157 33.9943L93.3131 34.7023C93.5108 35.1169 93.9031 35.3242 94.4899 35.3242ZM94.2698 32.6453C93.9573 32.6453 93.7022 32.7442 93.5044 32.9419C93.3067 33.1332 93.1951 33.4107 93.1696 33.7743L95.2744 33.3629C95.2106 33.146 95.0894 32.9738 94.9108 32.8462C94.7322 32.7123 94.5186 32.6453 94.2698 32.6453Z" fill="black"/>
<path d="M103.269 36.7114C102.695 36.7114 102.182 36.5966 101.729 36.367C101.276 36.1374 100.922 35.8185 100.667 35.4103C100.418 35.0021 100.294 34.5396 100.294 34.023C100.294 33.5064 100.418 33.0471 100.667 32.6453C100.922 32.2371 101.276 31.9214 101.729 31.6981C102.182 31.4685 102.695 31.3537 103.269 31.3537C103.856 31.3537 104.363 31.4813 104.79 31.7364C105.218 31.9852 105.521 32.3328 105.699 32.7792L104.293 33.4968C104.057 33.0312 103.712 32.7984 103.259 32.7984C102.934 32.7984 102.663 32.9068 102.446 33.1237C102.236 33.3405 102.131 33.6403 102.131 34.023C102.131 34.4121 102.236 34.7182 102.446 34.9415C102.663 35.1583 102.934 35.2668 103.259 35.2668C103.712 35.2668 104.057 35.034 104.293 34.5683L105.699 35.2859C105.521 35.7324 105.218 36.0832 104.79 36.3383C104.363 36.5871 103.856 36.7114 103.269 36.7114Z" fill="black"/>
<path d="M111.798 31.4398V36.6253H110.066V36.08C109.875 36.2841 109.645 36.4404 109.378 36.5488C109.116 36.6572 108.835 36.7114 108.536 36.7114C107.859 36.7114 107.321 36.5137 106.919 36.1183C106.523 35.7228 106.326 35.1296 106.326 34.3387V31.4398H108.143V34.0421C108.143 34.7884 108.434 35.1615 109.014 35.1615C109.301 35.1615 109.534 35.0627 109.712 34.8649C109.891 34.6608 109.98 34.3515 109.98 33.9369V31.4398H111.798Z" fill="black"/>
<path d="M115.621 36.7114C115.047 36.7114 114.533 36.5966 114.08 36.367C113.627 36.1374 113.273 35.8185 113.018 35.4103C112.77 35.0021 112.645 34.5396 112.645 34.023C112.645 33.5064 112.77 33.0471 113.018 32.6453C113.273 32.2371 113.627 31.9214 114.08 31.6981C114.533 31.4685 115.047 31.3537 115.621 31.3537C116.207 31.3537 116.715 31.4813 117.142 31.7364C117.569 31.9852 117.872 32.3328 118.051 32.7792L116.644 33.4968C116.408 33.0312 116.064 32.7984 115.611 32.7984C115.286 32.7984 115.015 32.9068 114.798 33.1237C114.587 33.3405 114.482 33.6403 114.482 34.023C114.482 34.4121 114.587 34.7182 114.798 34.9415C115.015 35.1583 115.286 35.2668 115.611 35.2668C116.064 35.2668 116.408 35.034 116.644 34.5683L118.051 35.2859C117.872 35.7324 117.569 36.0832 117.142 36.3383C116.715 36.5871 116.207 36.7114 115.621 36.7114Z" fill="black"/>
<path d="M125.566 31.3537C126.203 31.3537 126.711 31.5451 127.087 31.9277C127.47 32.3104 127.661 32.8877 127.661 33.6594V36.6253H125.843V33.956C125.843 33.5925 125.773 33.3246 125.633 33.1524C125.499 32.9802 125.307 32.8941 125.059 32.8941C124.784 32.8941 124.564 32.9897 124.398 33.1811C124.233 33.3724 124.15 33.6626 124.15 34.0517V36.6253H122.332V33.956C122.332 33.248 122.07 32.8941 121.547 32.8941C121.267 32.8941 121.043 32.9897 120.878 33.1811C120.712 33.3724 120.629 33.6626 120.629 34.0517V36.6253H118.811V31.4398H120.543V31.9852C120.734 31.7747 120.961 31.6184 121.222 31.5164C121.49 31.4079 121.78 31.3537 122.093 31.3537C122.456 31.3537 122.782 31.4207 123.069 31.5546C123.356 31.6886 123.588 31.8927 123.767 32.1669C123.971 31.9054 124.229 31.7045 124.542 31.5642C124.854 31.4239 125.196 31.3537 125.566 31.3537Z" fill="black"/>
<path d="M131.507 35.3242C131.756 35.3242 131.97 35.2891 132.148 35.2189C132.333 35.1488 132.518 35.034 132.703 34.8745L133.65 35.8695C133.159 36.4308 132.426 36.7114 131.45 36.7114C130.844 36.7114 130.311 36.5966 129.852 36.367C129.393 36.1374 129.036 35.8185 128.781 35.4103C128.532 35.0021 128.408 34.5396 128.408 34.023C128.408 33.5127 128.532 33.0567 128.781 32.6549C129.029 32.2467 129.371 31.9278 129.804 31.6981C130.244 31.4685 130.736 31.3537 131.278 31.3537C131.782 31.3537 132.241 31.459 132.655 31.6694C133.076 31.8735 133.411 32.1765 133.66 32.5783C133.909 32.9738 134.033 33.4458 134.033 33.9943L130.331 34.7023C130.528 35.1169 130.921 35.3242 131.507 35.3242ZM131.287 32.6453C130.975 32.6453 130.72 32.7442 130.522 32.9419C130.324 33.1332 130.213 33.4107 130.187 33.7743L132.292 33.3629C132.228 33.146 132.107 32.9738 131.928 32.8462C131.75 32.7123 131.536 32.6453 131.287 32.6453Z" fill="black"/>
<path d="M139.932 36.6253V33.8986L138.603 36.1661H137.828L136.536 33.8604V36.6253H134.9V31.4398H136.813L138.258 34.1474L139.846 31.4398H141.559L141.568 36.6253H139.932Z" fill="black"/>
<path d="M145.263 36.7784C143.548 36.7784 142.69 36.0417 142.69 34.5683V31.4398H144.498V33.0854C144.632 32.9961 144.81 32.9228 145.034 32.8654C145.263 32.8079 145.525 32.7792 145.818 32.7792C146.456 32.7792 146.957 32.9419 147.32 33.2672C147.684 33.5861 147.866 34.0613 147.866 34.6927C147.866 35.3752 147.63 35.895 147.158 36.2522C146.692 36.603 146.061 36.7784 145.263 36.7784ZM148.296 31.4398H150.114V36.6253H148.296V31.4398ZM145.263 35.5346C145.512 35.5346 145.7 35.4613 145.828 35.3146C145.955 35.1679 146.019 34.9734 146.019 34.731C146.019 34.495 145.955 34.31 145.828 34.1761C145.7 34.0421 145.515 33.9752 145.273 33.9752C145.101 33.9752 144.948 34.0071 144.814 34.0708C144.68 34.1346 144.574 34.2207 144.498 34.3292V34.731C144.498 34.9797 144.562 35.1775 144.689 35.3242C144.817 35.4645 145.008 35.5346 145.263 35.5346Z" fill="black"/>
</g>
<defs>
<clipPath id="clip0_406480_4500">
<rect width="150.114" height="48.3221" fill="white"/>
</clipPath>
</defs>
</svg>
